<?xml version="1.0" encoding="UTF-8" standalone="no"?>
<svg
   width="280"
   height="60"
   viewBox="0 0 280 60"
   fill="none"
   version="1.1"
   id="svg35"
   sodipodi:docname="plandoc_bi_logo.svg"
   inkscape:version="1.1.2 (0a00cf5339, 2022-02-04)"
   xmlns:inkscape="http://www.inkscape.org/namespaces/inkscape"
   xmlns:sodipodi="http://sodipodi.sourceforge.net/DTD/sodipodi-0.dtd"
   xmlns="http://www.w3.org/2000/svg"
   xmlns:svg="http://www.w3.org/2000/svg">
  <sodipodi:namedview
     id="namedview37"
     pagecolor="#ffffff"
     bordercolor="#666666"
     borderopacity="1.0"
     inkscape:pageshadow="2"
     inkscape:pageopacity="0.0"
     inkscape:pagecheckerboard="0"
     showgrid="false"
     width="260px"
     inkscape:zoom="2.8091424"
     inkscape:cx="173.00654"
     inkscape:cy="-57.312865"
     inkscape:window-width="2560"
     inkscape:window-height="1352"
     inkscape:window-x="0"
     inkscape:window-y="0"
     inkscape:window-maximized="1"
     inkscape:current-layer="svg35"
     fit-margin-top="0"
     fit-margin-left="0"
     fit-margin-right="0"
     fit-margin-bottom="0" />
  <g
     clip-path="url(#clip0_9071_1176)"
     id="g28"
     transform="translate(7.5350484,2.01373)">
    <path
       d="m 88.1994,23.1231 c 1.1973,0.4951 2.195,1.1388 3.0929,1.9805 0.8481,0.8418 1.5465,1.8815 1.9955,3.0204 0.4989,1.1883 0.6984,2.4261 0.6984,3.8125 0,1.3864 -0.2494,2.6738 -0.6984,3.8126 -0.4989,1.1883 -1.1474,2.1786 -1.9955,3.0203 -0.848,0.8417 -1.8956,1.5349 -3.0929,1.9806 -1.1973,0.4951 -2.4944,0.7427 -3.8912,0.7427 h -5.8866 v 8.7639 H 73.832 V 22.3804 h 10.4762 c 1.4467,0 2.7438,0.2475 3.8912,0.7427 z m -0.1996,5.1989 c -0.9478,-0.9407 -2.195,-1.4359 -3.6916,-1.4359 h -5.8866 v 10.0513 h 5.8866 c 1.4966,0 2.7438,-0.4951 3.6916,-1.4359 0.9479,-0.9408 1.4467,-2.1291 1.4467,-3.6145 0,-1.3864 -0.4489,-2.5747 -1.4467,-3.565 z"
       fill="#000000"
       id="path2" />
    <path
       d="M 102.118,50.3061 H 97.6777 V 22.3804 h 4.4403 z"
       fill="#000000"
       id="path4" />
    <path
       d="m 109.7,31.1443 c 1.397,-0.8417 3.293,-1.2874 5.637,-1.2874 2.844,0 4.939,0.6437 6.336,1.9311 1.397,1.2873 2.045,3.2184 2.045,5.8426 v 12.626 h -4.34 v -2.7233 c -0.598,0.9408 -1.447,1.6835 -2.494,2.2777 -1.048,0.5941 -2.345,0.8912 -3.891,0.8912 -1.048,0 -1.996,-0.1485 -2.844,-0.4456 -0.848,-0.2971 -1.546,-0.7427 -2.145,-1.2874 -0.599,-0.5446 -1.048,-1.1883 -1.347,-1.931 -0.299,-0.7427 -0.499,-1.5844 -0.499,-2.4757 0,-1.832 0.599,-3.2679 1.846,-4.3572 1.197,-1.0398 2.744,-1.6835 4.59,-1.832 l 5.587,-0.5447 c 0.798,-0.099 1.147,-0.3961 1.147,-0.9407 v -0.4456 c 0,-0.7923 -0.349,-1.3864 -0.997,-1.8816 -0.649,-0.4951 -1.647,-0.7427 -2.994,-0.7427 -1.247,0 -2.294,0.2476 -3.242,0.6932 -0.948,0.4456 -1.547,1.2379 -1.846,2.3767 l -3.492,-2.1786 c 0.549,-1.5349 1.496,-2.7233 2.943,-3.565 z m 3.891,10.6454 c -0.997,0.1486 -1.746,0.4457 -2.195,0.8913 -0.449,0.4456 -0.698,1.0398 -0.698,1.6834 0,0.7923 0.249,1.3864 0.848,1.8321 0.549,0.4456 1.397,0.6931 2.494,0.6931 0.848,0 1.597,-0.1485 2.245,-0.3961 0.649,-0.2475 1.247,-0.5941 1.696,-1.0397 0.449,-0.4457 0.799,-0.9408 1.048,-1.535 0.249,-0.5941 0.399,-1.1388 0.399,-1.733 v -1.0893 z"
       fill="#000000"
       id="path6" />
    <path
       d="m 135.392,30.6987 c 1.148,-0.5447 2.395,-0.8418 3.792,-0.8418 1.247,0 2.295,0.1981 3.242,0.5942 0.948,0.3961 1.697,0.9408 2.295,1.6835 0.599,0.7427 1.048,1.5844 1.347,2.6242 0.299,1.0398 0.449,2.1786 0.449,3.4659 v 12.0319 h -4.44 V 38.8189 c 0,-1.6339 -0.399,-2.8718 -1.147,-3.664 -0.748,-0.7922 -1.796,-1.1883 -3.093,-1.1883 -0.948,0 -1.796,0.1485 -2.445,0.4951 -0.648,0.3466 -1.197,0.8417 -1.596,1.4359 -0.399,0.5942 -0.698,1.3369 -0.848,2.1786 -0.15,0.8417 -0.249,1.7825 -0.249,2.7728 v 9.4076 h -4.341 V 30.3521 h 4.241 v 2.7727 c 0.748,-1.0397 1.696,-1.832 2.793,-2.4261 z"
       fill="#000000"
       id="path8" />
    <path
       d="m 166.87,23.4202 c 1.696,0.6931 3.193,1.6834 4.44,2.9213 1.247,1.2378 2.195,2.7232 2.893,4.4067 0.699,1.6835 1.048,3.565 1.048,5.595 0,2.0301 -0.349,3.8621 -1.048,5.5951 -0.698,1.6834 -1.646,3.1689 -2.893,4.4067 -1.247,1.2378 -2.694,2.2281 -4.44,2.9213 -1.696,0.6932 -3.542,1.0398 -5.537,1.0398 h -9.928 V 22.3804 h 9.928 c 1.995,0 3.841,0.3466 5.537,1.0398 z m 3.143,9.16 c -0.449,-1.1388 -1.098,-2.1291 -1.946,-2.9708 -0.848,-0.8418 -1.796,-1.4854 -2.943,-1.9311 -1.147,-0.4456 -2.394,-0.6932 -3.741,-0.6932 h -5.338 v 18.8153 h 5.338 c 1.347,0 2.594,-0.2476 3.741,-0.6932 1.147,-0.4457 2.145,-1.1389 2.943,-1.9311 0.799,-0.7922 1.497,-1.832 1.946,-2.9708 0.449,-1.1388 0.698,-2.4262 0.698,-3.763 -0.049,-1.4359 -0.249,-2.7233 -0.698,-3.8621 z"
       fill="#000000"
       id="path10" />
    <path
       d="m 178.993,36.0957 c 0.549,-1.2874 1.298,-2.3767 2.245,-3.3175 0.948,-0.9407 2.096,-1.6339 3.393,-2.129 1.297,-0.4952 2.694,-0.7923 4.24,-0.7923 1.547,0 2.943,0.2476 4.24,0.7923 1.297,0.4951 2.445,1.2378 3.393,2.129 0.948,0.9408 1.696,2.0301 2.245,3.3175 0.548,1.2873 0.798,2.6737 0.798,4.2086 0,1.535 -0.25,2.9213 -0.798,4.2087 -0.549,1.2873 -1.297,2.3766 -2.245,3.3174 -0.948,0.9408 -2.096,1.634 -3.393,2.1291 -1.297,0.4951 -2.693,0.7922 -4.24,0.7922 -1.546,0 -2.943,-0.2475 -4.24,-0.7922 -1.297,-0.4951 -2.445,-1.2378 -3.393,-2.1291 -0.947,-0.9408 -1.696,-2.0301 -2.245,-3.3174 -0.548,-1.2874 -0.798,-2.6737 -0.798,-4.2087 0,-1.4854 0.25,-2.8718 0.798,-4.2086 z m 15.565,1.6834 c -0.299,-0.7922 -0.748,-1.4359 -1.297,-1.9805 -0.549,-0.5447 -1.197,-0.9903 -1.946,-1.2874 -0.748,-0.2971 -1.596,-0.4456 -2.494,-0.4456 -0.898,0 -1.746,0.1485 -2.494,0.4456 -0.748,0.2971 -1.397,0.7427 -1.946,1.2874 -0.549,0.5446 -0.997,1.1883 -1.297,1.9805 -0.299,0.7922 -0.449,1.634 -0.449,2.5747 0,0.9408 0.15,1.7825 0.449,2.5748 0.3,0.7922 0.748,1.4358 1.297,1.9805 0.549,0.5446 1.198,0.9903 1.946,1.2874 0.748,0.297 1.596,0.4456 2.494,0.4456 0.898,0 1.746,-0.1486 2.494,-0.4456 0.749,-0.2971 1.397,-0.7428 1.946,-1.2874 0.549,-0.5447 0.998,-1.1883 1.297,-1.9805 0.299,-0.7923 0.449,-1.634 0.449,-2.5748 0.05,-0.9407 -0.15,-1.832 -0.449,-2.5747 z"
       fill="#000000"
       id="path12" />
    <path
       d="m 202.589,36.1452 c 0.499,-1.2874 1.248,-2.3767 2.195,-3.3174 0.948,-0.9408 2.046,-1.634 3.343,-2.1786 1.297,-0.4952 2.744,-0.7923 4.34,-0.7923 1.596,0 2.993,0.2476 4.24,0.7923 1.248,0.4951 2.295,1.2378 3.193,2.129 l -2.594,3.367 c -0.599,-0.5942 -1.347,-1.1388 -2.145,-1.5349 -0.798,-0.3962 -1.746,-0.5942 -2.794,-0.5942 -0.848,0 -1.646,0.1485 -2.394,0.4456 -0.749,0.2971 -1.397,0.6932 -1.946,1.2379 -0.549,0.5446 -0.948,1.1883 -1.247,1.9805 -0.299,0.7922 -0.449,1.634 -0.449,2.5747 0,0.9408 0.15,1.832 0.449,2.5747 0.299,0.7922 0.748,1.4359 1.247,1.9806 0.549,0.5446 1.147,0.9407 1.896,1.2378 0.748,0.2971 1.546,0.4456 2.394,0.4456 1.148,0 2.096,-0.198 2.944,-0.6436 0.848,-0.4457 1.596,-0.9408 2.245,-1.535 L 220,47.7314 c -0.848,0.8417 -1.946,1.5349 -3.193,2.1291 -1.297,0.5446 -2.794,0.8417 -4.44,0.8417 -1.596,0 -2.993,-0.2476 -4.29,-0.7427 -1.297,-0.4951 -2.395,-1.2378 -3.293,-2.1291 -0.898,-0.9408 -1.596,-2.0301 -2.145,-3.2679 -0.499,-1.2874 -0.748,-2.6737 -0.748,-4.2087 -0.05,-1.5349 0.2,-2.9213 0.698,-4.2086 z"
       fill="#000000"
       id="path14" />
    <path
       d="M 13.0204,50.0584 V 23.321 L 4.78906,21.1919 V 50.603 Z"
       fill="#4ab048"
       id="path16" />
    <path
       d="M 27.3878,52.1382 V 15.2009 L 17.8096,11.0913 V 53.178 Z"
       fill="#4ab048"
       id="path18" />
    <path
       d="M 64.3038,50.3059 V 22.3802 L 32.127,0 v 56 z"
       fill="#4ab048"
       id="path20" />
    <path
       d="M 27.3877,21.588 V 3.71353 L 32.1269,0 v 56 l -4.7392,-0.9408 z"
       fill="#0f5233"
       id="path22" />
    <path
       d="M 13.0205,32.1346 V 14.8048 l 4.7891,-3.7135 V 53.178 l -4.7891,-0.9408 z"
       fill="#0f5233"
       id="path24" />
    <path
       d="M 0,44.0177 V 24.9054 L 4.78912,21.1919 V 50.603 L 0,49.6623 Z"
       fill="#0f5233"
       id="path26" />
    <path
       style="opacity:0.287133;fill:#4ab048;fill-opacity:0.92549;stroke:none;stroke-width:0.252113"
       d="M 32.21968,28.079821 V 0.224061 l 2.202517,1.5143945 c 1.211384,0.8329168 8.375858,5.8082128 15.921052,11.0562135 l 13.718536,9.541818 0.06502,13.94762 0.06502,13.94762 -15.419708,2.718122 c -8.48084,1.494968 -15.674571,2.778336 -15.98607,2.851928 l -0.566361,0.133807 z"
       id="path25199" />
    <path
       style="opacity:0.287133;fill:#4ab048;fill-opacity:0.92549;stroke:none;stroke-width:0.252113"
       d="m 235.35469,31.998038 v -4.560967 l 1.9508,0.0068 c 7.29276,0.0255 9.45583,1.067087 9.45904,4.554842 0.002,1.901111 -0.6149,2.938161 -2.22204,3.736971 -1.13398,0.563626 -1.61834,0.630662 -5.21889,0.722294 l -3.96891,0.101006 z"
       id="path25238" />
    <path
       style="opacity:0.287133;fill:#4ab048;fill-opacity:0.92549;stroke:none;stroke-width:0.252113"
       d="M 231.83066,38.638444 V 24.416476 h 4.63854 c 8.68645,0 11.8915,0.925116 13.35084,3.853625 0.72487,1.454629 0.86162,3.770801 0.32806,5.55653 -0.42431,1.420068 -2.10802,3.057991 -3.58669,3.489151 -1.39227,0.405967 -1.48226,0.751331 -0.26185,1.004895 1.91631,0.398151 3.77517,1.745175 4.59964,3.33313 0.21714,0.418209 0.44682,1.562279 0.51041,2.542377 0.22808,3.515446 -1.10354,5.950367 -4.04603,7.398309 -2.16085,1.06331 -3.74752,1.26278 -10.05809,1.264461 l -5.47483,0.0015 z m 12.58582,10.934901 c 1.34334,-0.478722 2.22881,-1.191433 2.74441,-2.20896 1.10519,-2.181065 0.84162,-4.745552 -0.64001,-6.227177 -1.29535,-1.29535 -2.77731,-1.617757 -7.43613,-1.617757 h -3.98178 v 5.11823 c 0,2.815027 0.085,5.206896 0.18879,5.315265 0.28969,0.302344 8.12589,-0.02366 9.12472,-0.379601 z M 242.3753,36.49353 c 3.28111,-0.425913 4.37734,-1.484489 4.50427,-4.34955 0.0995,-2.245711 -0.36372,-3.113822 -2.12385,-3.980328 -1.11119,-0.547033 -1.59708,-0.608243 -5.4365,-0.684869 l -4.21625,-0.08415 v 4.510157 c 0,2.480586 0.0755,4.585671 0.16782,4.677967 0.24821,0.248212 4.96094,0.189021 7.10451,-0.08923 z"
       id="path25277" />
  </g>
  <defs
     id="defs33">
    <clipPath
       id="clip0_9071_1176">
      <rect
         width="220"
         height="56"
         fill="#ffffff"
         id="rect30"
         x="0"
         y="0" />
    </clipPath>
  </defs>
  <g
     aria-label="BI"
     transform="scale(0.98060443,1.0197792)"
     id="text11686-3"
     style="font-size:36.6092px;line-height:100%;letter-spacing:0px;word-spacing:0px;fill:#489ab0;fill-opacity:0.92549;stroke-width:0.980604px"
     inkscape:transform-center-x="-132.13892"
     inkscape:transform-center-y="18.825454">
    <path
       d="m 245.86549,25.00635 h 11.12919 q 4.7592,0 7.21202,1.793851 2.45281,1.793851 2.45281,5.271725 0,4.612759 -3.69753,6.077127 2.41621,0.695575 3.73414,2.452816 1.35454,1.720633 1.35454,4.210058 0,7.395058 -10.28718,7.395058 h -11.89799 z m 12.00781,23.539716 q 2.85552,0 4.17345,-0.988449 1.35454,-1.025057 1.35454,-3.185 0,-2.123334 -1.35454,-3.111782 -1.31793,-0.988449 -4.21006,-0.988449 h -7.43166 v 8.27368 z M 250.40503,28.66727 v 7.980806 h 6.44322 q 5.1985,0 5.1985,-3.953794 0,-4.027012 -5.1985,-4.027012 z"
       style="font-family:Shoika-Regular;-inkscape-font-specification:Shoika-Regular"
       id="path841" />
    <path
       d="M 272.59018,52.206985 V 25.00635 h 4.53954 v 27.200635 z"
       style="font-family:Shoika-Regular;-inkscape-font-specification:Shoika-Regular"
       id="path843" />
  </g>
</svg>
